PathFileType	4	(X/Y/Z)	E:\3-PhD\Data\MocapData\ElaboratedData\009\pre\dynamicElaborations\RunN2\RunN2.trc
DataRate	CameraRate	NumFrames	NumMarkers	Units	OrigDataRate	DataStartFrame
200	200	5	54	mm	200	388
Frame#	Time	FHD			LBHD			RBHD			C7			T10			CLAV			LSHO			LUUPA			LMUPA			LDUPA			LLEP			LMEP			LRAD			LUL			LRFIN			RSHO			RUPA1			RMUPA			RDUPA			RLEP			RMEP			RRAD			RUL			RUFIN			RASI			USACR			LSACR			RSACR			LTHI1			LTHI2			LTHI3			LTHI4			LTIB1			LTIB2			LTIB3			LTIB4			LLMAL			LHEE			LMT1			LMT2			RTHI			RTHI2			RTHI3			RTHI4			RLFC			RTIB1			RTIB2			RTIB3			RTIB4			RLMAL			RHEE			RMT1			RMT2			RMT5		
		X1	Y1	Z1	X2	Y2	Z2	X3	Y3	Z3	X4	Y4	Z4	X5	Y5	Z5	X6	Y6	Z6	X7	Y7	Z7	X8	Y8	Z8	X9	Y9	Z9	X10	Y10	Z10	X11	Y11	Z11	X12	Y12	Z12	X13	Y13	Z13	X14	Y14	Z14	X15	Y15	Z15	X16	Y16	Z16	X17	Y17	Z17	X18	Y18	Z18	X19	Y19	Z19	X20	Y20	Z20	X21	Y21	Z21	X22	Y22	Z22	X23	Y23	Z23	X24	Y24	Z24	X25	Y25	Z25	X26	Y26	Z26	X27	Y27	Z27	X28	Y28	Z28	X29	Y29	Z29	X30	Y30	Z30	X31	Y31	Z31	X32	Y32	Z32	X33	Y33	Z33	X34	Y34	Z34	X35	Y35	Z35	X36	Y36	Z36	X37	Y37	Z37	X38	Y38	Z38	X39	Y39	Z39	X40	Y40	Z40	X41	Y41	Z41	X42	Y42	Z42	X43	Y43	Z43	X44	Y44	Z44	X45	Y45	Z45	X46	Y46	Z46	X47	Y47	Z47	X48	Y48	Z48	X49	Y49	Z49	X50	Y50	Z50	X51	Y51	Z51	X52	Y52	Z52	X53	Y53	Z53	X54	Y54	Z54	

417	2.080000	-95.912383	1513.761883	-202.653114	-297.060619	1493.647042	-198.143550	-204.769277	1501.531608	-111.037716	-322.472416	1377.283911	-127.320528	-481.408220	1079.159203	-28.875039	-239.412373	1241.837851	-173.567017	-323.386904	1291.917542	-298.365540	-519.395039	1249.355249	-322.041967	-527.561828	1200.514889	-318.018058	-583.306736	1225.150515	-314.712346	-697.130426	1193.184371	-286.502109	-693.476588	1207.272926	-213.344762	-765.793184	956.588469	-195.583632	-834.463997	977.319414	-219.906852	-796.470886	877.952654	-198.991328	-191.389855	1335.539065	-25.063322	-163.662816	1214.897305	101.361436	-132.697223	1183.491087	87.591451	-147.350166	1160.552631	140.650820	-109.346510	1035.257028	187.821992	-159.899842	992.386267	151.503049	17.614966	1070.320720	-32.179258	65.045440	1031.776161	-2.897332	77.417471	1118.613805	-47.640821	-331.277170	894.864161	85.265263	-516.166942	993.689351	-3.763240	-532.090879	956.962580	-20.365528	-513.544993	971.184816	34.454377	-366.844841	703.427031	-234.972747	-291.429552	684.576211	-269.396293	-266.135611	725.345012	-272.849251	-258.919697	631.555935	-265.082784	-84.772573	426.428114	-215.572078	-160.094975	380.181352	-211.553699	-116.943353	379.106910	-207.531045	-101.052202	320.400519	-146.910509	-157.171415	190.248283	-65.386191	-204.826927	181.108445	24.688172	5.367483	152.931631	-48.949011	-14.406992	135.891178	-88.426638	-428.646969	712.140008	249.819957	-415.762101	650.834477	267.292050	-390.021718	633.428069	255.048929	-476.199093	595.590578	295.715741	-500.694551	497.826178	336.046630	-576.816349	299.346257	408.963191	-655.019511	300.115896	484.655780	-625.784918	265.535386	470.309628	-654.817514	215.905731	467.344964	-738.883271	193.332669	546.860936	-830.493744	187.932297	532.991043	-663.476400	51.154173	501.155570	-653.560087	56.890663	540.422957	-688.223570	60.255056	598.829930	
418	2.085000	-71.858526	1516.569862	-215.984463	-273.053391	1496.900333	-211.059407	-180.441635	1504.376690	-124.183810	-297.751333	1379.923233	-139.191707	-453.810703	1081.552206	-37.555576	-215.008738	1244.954913	-186.505125	-300.101012	1294.814810	-310.245776	-496.324577	1254.852280	-330.829479	-504.968411	1206.186542	-326.361123	-560.280727	1231.543306	-321.635427	-673.979742	1200.664983	-290.921172	-668.315310	1214.497735	-217.870482	-738.378710	962.724779	-199.678377	-807.913891	983.130815	-221.917837	-768.622862	883.639661	-203.030425	-165.486418	1339.137888	-39.073975	-134.919876	1217.505020	85.502903	-104.591073	1186.157224	70.403271	-117.756105	1162.568044	123.560895	-79.196873	1037.013328	169.196575	-130.943109	994.447590	133.260189	39.033139	1078.332920	-54.634602	88.207669	1040.243319	-28.134734	97.303134	1128.104357	-71.940408	-303.202772	896.643112	75.416265	-487.666184	996.925245	-12.420775	-504.074694	960.195677	-28.616988	-484.942138	974.608902	26.008652	-340.833514	707.110366	-243.543668	-265.575639	687.866518	-277.955431	-240.264337	728.577273	-281.582173	-233.203589	634.792434	-273.570901	-50.485702	429.584498	-229.301475	-122.782939	379.058197	-224.809013	-79.592403	380.375428	-222.170266	-58.239592	320.788189	-164.014814	-104.594321	184.847684	-84.561996	-149.812638	172.584260	6.040091	60.161784	153.529296	-71.064224	40.520781	136.018607	-110.449032	-405.399000	716.858766	240.771297	-395.011355	654.854763	257.919334	-370.221436	636.398267	245.240939	-457.817977	602.478291	286.954463	-487.040510	505.843706	327.262046	-564.770787	307.967225	401.892431	-642.975198	308.949129	477.621704	-613.559861	274.347031	463.528516	-642.183512	224.521437	461.066424	-726.693594	202.528090	540.198677	-817.180471	200.953096	523.215693	-660.180876	52.148493	499.060097	-650.373631	58.667429	538.226458	-686.085818	66.006662	595.400729	
419	2.090000	-47.897423	1519.363979	-229.258970	-249.116600	1499.971382	-223.861334	-156.180515	1507.105407	-137.235507	-272.969015	1382.434100	-151.053296	-426.293798	1083.922541	-46.508814	-190.594030	1247.926270	-199.320031	-276.702275	1297.587880	-322.105058	-473.100039	1259.992754	-339.691486	-482.126746	1211.493847	-334.734210	-537.010978	1237.494843	-328.581561	-650.427945	1207.625244	-295.409032	-642.737371	1221.053393	-222.453524	-710.578253	968.189963	-204.277862	-780.900016	988.279061	-224.389258	-740.425109	888.664663	-207.718620	-139.614057	1342.485136	-52.950728	-106.394113	1220.025640	69.855237	-76.842788	1188.633080	53.469797	-88.543722	1164.549496	106.746174	-49.708804	1038.769153	151.200273	-102.747543	996.502025	115.767161	59.903721	1085.217206	-76.129123	110.554786	1047.537557	-52.266553	116.696315	1136.179242	-95.276327	-275.206247	898.471527	65.368557	-459.298102	1000.216626	-21.376398	-476.118901	963.473924	-37.177927	-456.411013	978.080043	17.261009	-314.858184	710.068614	-252.031874	-239.756950	690.322524	-286.393197	-214.373566	730.916258	-290.292395	-207.596003	637.144773	-281.868420	-17.014817	432.207645	-242.772124	-86.099128	377.651358	-237.945666	-43.034925	381.344274	-236.680596	-16.310484	321.225642	-181.213815	-52.780123	180.146368	-104.306753	-95.406575	165.046086	-13.275505	113.854837	154.572058	-93.628470	94.351801	136.580737	-132.919809	-381.885948	721.750822	231.601290	-373.830971	659.207290	248.536494	-349.896621	639.825851	235.568872	-438.778943	609.493435	277.905551	-472.332242	514.025154	318.121508	-551.675732	316.783393	394.392770	-630.038510	317.951569	470.026554	-600.426920	283.348062	456.225129	-628.643655	233.308849	454.168923	-713.610310	211.963214	532.757435	-802.739342	214.186965	512.324780	-656.154841	54.127025	496.385750	-646.661249	61.323583	535.478113	-683.534786	72.735696	591.088831	
420	2.095000	-24.033049	1522.153799	-242.452604	-225.247338	1502.804326	-236.522127	-131.983723	1509.685284	-150.171212	-248.108110	1384.789470	-162.892332	-398.897989	1086.261660	-55.745733	-166.153954	1250.716451	-211.999518	-253.224477	1300.206748	-333.942208	-449.763674	1264.733749	-348.607516	-459.080447	1216.387243	-343.141742	-513.545380	1242.950869	-335.572111	-626.536877	1214.006285	-299.995015	-616.834487	1226.903319	-227.139800	-682.427728	972.944096	-209.376130	-753.460758	992.686103	-227.365242	-711.866954	892.990274	-213.024402	-113.751463	1345.555388	-66.675813	-78.103154	1222.413992	54.458805	-49.441822	1190.888029	36.849416	-59.725387	1166.453668	90.264944	-20.862728	1040.473219	133.884636	-75.265934	998.499109	99.062360	80.432495	1090.902334	-96.656739	132.276359	1053.567788	-75.233721	135.803676	1142.765854	-117.640539	-247.320186	900.353199	55.177201	-431.111066	1003.535080	-30.647066	-448.270365	966.766376	-46.065504	-427.998348	981.570631	8.177469	-288.899158	712.228285	-260.424543	-213.947955	691.907276	-294.702632	-188.450282	732.335528	-298.961223	-182.051194	638.589601	-289.971682	15.615949	434.252921	-255.921033	-50.120512	375.930605	-250.896596	-7.336240	381.963853	-250.966253	24.614361	321.667041	-198.390665	-1.945958	176.126277	-124.459349	-41.838981	158.422707	-33.082077	166.267373	156.136388	-116.548667	146.907475	137.650802	-155.740448	-358.156428	726.732335	222.326595	-352.220024	663.805731	239.182067	-329.013753	643.632412	226.085287	-419.071676	616.478957	268.599670	-456.485364	522.138610	308.649787	-537.590038	325.624410	386.458312	-616.273594	327.065036	461.847233	-586.492103	292.442892	448.387281	-614.369085	242.206214	446.638677	-699.820893	221.682454	524.529565	-787.381503	227.602950	500.443148	-651.334831	57.271082	493.013203	-642.366608	65.036007	532.068011	-680.469010	80.541145	585.794102	
421	2.100000	-0.264246	1524.949365	-255.545480	-201.437056	1505.355083	-249.025443	-107.844884	1512.093046	-162.977036	-223.158827	1386.973440	-174.704026	-371.661892	1088.565461	-65.272325	-141.672046	1253.300230	-224.541428	-229.695037	1302.645071	-345.762299	-426.345492	1269.038039	-357.555123	-435.864695	1220.823840	-351.587263	-489.921919	1247.865920	-342.626295	-602.363039	1219.748858	-304.708301	-590.696162	1232.016056	-231.972855	-653.952834	976.957413	-214.966004	-725.627903	996.290135	-230.884275	-682.933755	896.589544	-218.921475	-87.877971	1348.332490	-80.236364	-50.069467	1224.628252	39.348897	-22.376225	1192.897450	20.604099	-31.316539	1168.240497	74.170817	7.349002	1042.081224	117.285387	-48.461164	1000.401809	83.168002	100.810216	1095.334849	-116.217767	153.552355	1058.264936	-96.986031	154.819046	1147.808336	-139.033541	-219.564075	902.297428	44.885634	-403.146268	1006.843928	-40.246010	-420.573993	970.033042	-55.287653	-399.755062	985.048444	-1.265678	-262.944344	713.539522	-268.713637	-188.134323	692.596918	-302.877108	-162.484472	732.818927	-307.560090	-156.539685	639.113147	-297.878110	47.383329	435.678947	-268.688410	-14.927439	373.872809	-263.585674	27.437096	382.185078	-264.925970	64.414241	322.054891	-215.414394	47.684433	172.756068	-144.824026	10.660987	152.627453	-53.174113	217.196799	158.282418	-139.706656	197.981612	139.290488	-178.786766	-334.243070	731.712580	212.942365	-330.163562	668.553097	229.868129	-307.535713	647.723665	216.801098	-398.669793	623.277223	259.067824	-439.411849	529.951280	298.872963	-522.583454	334.332222	378.090483	-601.748966	336.252251	453.061344	-571.866488	301.554351	440.009883	-599.538566	251.174711	438.475452	-685.532900	231.749847	515.523260	-771.354789	241.185901	487.722195	-645.708689	61.723517	488.821264	-637.450102	69.960706	527.872617	-676.767546	89.490797	579.456341	
